<?xml version="1.0" encoding="utf-8"?>
<svg viewBox="0 0 500 500" xmlns="http://www.w3.org/2000/svg">
  <rect id="backgroundrect" width="100%" height="100%" x="0" y="0" fill="none" stroke="none" transform="matrix(1, 0, 0, 1, -267.240334, -532.727311)"/>
  <g class="currentLayer" style="" transform="matrix(0.516024, 0, 0, 0.493065, 20.901265, -0.880897)">
    <title>Layer 1</title>
    <path id="Caminho_463" class="st0" d="M828.84 0v198.99c0 28.38-23 51.39-51.38 51.4l-396.75.16c-42.25 0-76.51 33.56-76.51 74.95v29.22c0 41.4 34.25 74.95 76.51 74.95l371.97.51c42.25 0 76.51 33.56 76.51 74.95v79.96c0 41.4-34.25 74.95-76.51 74.95l-324.81-.51c-41.6 0-75.33-33.04-75.33-73.8v-2.87c0-40.76 33.91-73.99 75.52-73.99h-.19c41.6 0 75.33 33.23 75.33 73.99v220.98c0 41.4-34.25 74.95-76.5 74.95H142.83c-42.25 0-76.5 33.56-76.5 74.95v110.76c0 41.4 34.25 74.95 76.5 74.95H684.7c42.25 0 76.51 33.56 76.51 74.95v417.03c0 41.4-34.25 74.95-76.51 74.95H142.83c-42.25 0-76.5 33.56-76.5 74.95v357.95c0 41.4 34.25 74.95 76.5 74.95h609.56c42.25 0 76.51 33.56 76.51 74.95 0 0 .08 246.01.11 372.62.01 39.49-31.99 71.51-71.48 71.52H292.58" style="fill: none; stroke: rgb(81, 57, 141); stroke-miterlimit: 10; stroke-width: 40.793px;"/>
    <path id="pin" class="st1" d="M702.8 2652.36c-5.45-6.91-14.57-20.75-14.57-35.76 0-19.45 16.29-35.27 36.3-35.27 20.01 0 36.3 15.82 36.3 35.26 0 15.01-9.13 28.85-14.57 35.76-4.98 6.33-15.15 17.02-21.73 17.02-6.59 0-16.76-10.69-21.73-17.01zm-6.51-35.76c0 12.3 7.72 24.17 12.33 30.15 7.29 9.47 14.04 14.09 15.91 14.6 1.86-.51 8.62-5.12 15.91-14.6 4.6-5.98 12.33-17.85 12.33-30.15 0-15.03-12.67-27.26-28.24-27.26-15.57 0-28.24 12.23-28.24 27.26zm9.6 1.48c-.08-10.33 8.22-18.77 18.55-18.85 10.33-.08 18.77 8.22 18.85 18.55.08 10.33-8.22 18.76-18.55 18.85h-.15c-10.28.03-18.65-8.27-18.7-18.55zm8.07 0c-.05 5.87 4.68 10.67 10.55 10.72 5.87.05 10.67-4.68 10.72-10.55s-4.68-10.67-10.55-10.72h-.09c-5.85-.02-10.61 4.7-10.63 10.55z" style="fill: rgb(238, 118, 75);"/>
    <path id="pattern-pin" class="st1" d="M77.22 2714.54c.09-3.5 3-6.27 6.51-6.19 3.38.08 6.1 2.81 6.19 6.19 0 4.72-5.08 9.68-6.35 9.68s-6.35-4.97-6.35-9.68zm-25.38 0c.08-3.5 2.98-6.28 6.48-6.21 3.4.07 6.13 2.81 6.21 6.21 0 4.72-5.08 9.68-6.35 9.68s-6.34-4.97-6.34-9.68zm-25.38 0c.09-3.5 3-6.27 6.51-6.19 3.38.08 6.1 2.81 6.19 6.19 0 4.72-5.08 9.68-6.35 9.68s-6.35-4.97-6.35-9.68zm-25.39 0c.09-3.5 3-6.27 6.51-6.19 3.38.08 6.1 2.81 6.19 6.19 0 4.72-5.08 9.68-6.35 9.68s-6.35-4.97-6.35-9.68zm76.15-31.76c.09-3.5 3-6.27 6.51-6.19 3.38.08 6.1 2.81 6.19 6.19 0 4.72-5.08 9.68-6.35 9.68s-6.35-4.97-6.35-9.68zm-25.38 0c.08-3.5 2.98-6.28 6.48-6.21 3.4.07 6.13 2.81 6.21 6.21 0 4.72-5.08 9.68-6.35 9.68s-6.34-4.97-6.34-9.68zm-25.38 0c.09-3.5 3-6.27 6.51-6.19 3.38.08 6.1 2.81 6.19 6.19 0 4.72-5.08 9.68-6.35 9.68s-6.35-4.97-6.35-9.68zm-25.39 0c.09-3.5 3-6.27 6.51-6.19 3.38.08 6.1 2.81 6.19 6.19 0 4.72-5.08 9.68-6.35 9.68s-6.35-4.97-6.35-9.68zm76.15-31.76c.09-3.5 3-6.27 6.51-6.19 3.38.08 6.1 2.81 6.19 6.19 0 4.72-5.08 9.68-6.35 9.68s-6.35-4.97-6.35-9.68zm-25.38 0c.08-3.5 2.98-6.28 6.48-6.21 3.4.07 6.13 2.81 6.21 6.21 0 4.72-5.08 9.68-6.35 9.68s-6.34-4.97-6.34-9.68zm-25.38 0c.09-3.5 3-6.27 6.51-6.19 3.38.08 6.1 2.81 6.19 6.19 0 4.72-5.08 9.68-6.35 9.68s-6.35-4.97-6.35-9.68zm-25.39 0c.06-3.5 2.95-6.3 6.46-6.23 3.42.06 6.17 2.82 6.23 6.23 0 4.72-5.08 9.68-6.35 9.68s-6.34-4.97-6.34-9.68zm76.15-31.76c.09-3.5 3-6.27 6.51-6.19 3.38.08 6.1 2.81 6.19 6.19 0 4.72-5.08 9.68-6.35 9.68s-6.35-4.97-6.35-9.68zm-25.38 0c.08-3.5 2.98-6.28 6.48-6.21 3.4.07 6.13 2.81 6.21 6.21 0 4.72-5.08 9.68-6.35 9.68s-6.34-4.97-6.34-9.68zm51.93 95.28c.08-3.5 2.98-6.28 6.48-6.21 3.4.07 6.13 2.81 6.21 6.21 0 4.72-5.08 9.68-6.35 9.68s-6.34-4.97-6.34-9.68zm0-31.76c.09-3.5 3-6.27 6.51-6.19 3.38.08 6.1 2.81 6.19 6.19 0 4.72-5.08 9.68-6.35 9.68s-6.35-4.97-6.35-9.68zm0-31.76c.09-3.5 3-6.27 6.51-6.19 3.38.08 6.1 2.81 6.19 6.19 0 4.72-5.08 9.68-6.35 9.68s-6.35-4.97-6.35-9.68zm0-31.76c.09-3.5 3-6.27 6.51-6.19 3.38.08 6.1 2.81 6.19 6.19 0 4.72-5.08 9.68-6.35 9.68s-6.35-4.97-6.35-9.68zm-77.31 0c.08-3.5 2.98-6.28 6.48-6.21 3.4.07 6.13 2.81 6.21 6.21 0 4.72-5.08 9.68-6.35 9.68s-6.34-4.97-6.34-9.68zm-25.38 0c.08-3.5 2.98-6.28 6.48-6.21 3.4.07 6.13 2.81 6.21 6.21 0 4.72-5.08 9.68-6.35 9.68s-6.35-4.97-6.34-9.68z" style="fill: rgb(238, 118, 75);"/>
    <path id="pattern-pin-2" class="st1" d="M100.36 1351.3c.1-4.62 3.93-8.28 8.55-8.18 4.48.1 8.08 3.7 8.18 8.18 0 6.21-6.69 12.76-8.36 12.76s-8.37-6.54-8.37-12.76zm-33.45 0c.11-4.62 3.95-8.27 8.57-8.16a8.37 8.37 0 018.16 8.16c0 6.21-6.69 12.76-8.36 12.76s-8.37-6.54-8.37-12.76zm-33.46 0c.1-4.62 3.93-8.28 8.55-8.18 4.48.1 8.08 3.7 8.18 8.18 0 6.21-6.69 12.76-8.36 12.76s-8.37-6.54-8.37-12.76zm-33.45 0c.11-4.62 3.95-8.27 8.57-8.16a8.37 8.37 0 018.16 8.16c0 6.21-6.69 12.76-8.36 12.76S0 1357.52 0 1351.3zm100.36-41.86c.11-4.62 3.95-8.27 8.57-8.16a8.37 8.37 0 018.16 8.16c0 6.21-6.69 12.76-8.36 12.76s-8.37-6.54-8.37-12.76zm-33.45 0c.11-4.62 3.95-8.27 8.57-8.16a8.37 8.37 0 018.16 8.16c0 6.21-6.69 12.76-8.36 12.76s-8.37-6.54-8.37-12.76zm-33.46 0c.1-4.62 3.93-8.28 8.55-8.18 4.48.1 8.08 3.7 8.18 8.18 0 6.21-6.69 12.76-8.36 12.76s-8.37-6.54-8.37-12.76zm-33.45 0c.11-4.62 3.95-8.27 8.57-8.16a8.37 8.37 0 018.16 8.16c0 6.21-6.69 12.76-8.36 12.76S0 1315.66 0 1309.44zm100.36-41.86c.09-4.62 3.9-8.29 8.52-8.2 4.5.09 8.12 3.71 8.2 8.2 0 6.21-6.69 12.76-8.36 12.76s-8.36-6.54-8.36-12.76zm-33.45 0c.09-4.62 3.9-8.29 8.52-8.21 4.5.09 8.12 3.71 8.21 8.21 0 6.21-6.69 12.76-8.36 12.76s-8.37-6.54-8.37-12.76zm-33.45 0c.09-4.62 3.9-8.29 8.52-8.21 4.5.09 8.12 3.71 8.21 8.21 0 6.21-6.69 12.76-8.36 12.76s-8.38-6.54-8.37-12.76zm-33.46 0c.09-4.62 3.9-8.29 8.52-8.21 4.5.09 8.12 3.71 8.21 8.21 0 6.21-6.69 12.76-8.36 12.76S0 1273.8 0 1267.58zm100.36-41.86c.11-4.62 3.95-8.27 8.57-8.16a8.37 8.37 0 018.16 8.16c0 6.21-6.69 12.76-8.36 12.76s-8.37-6.54-8.37-12.76zm-33.45 0c.09-4.62 3.9-8.29 8.52-8.21 4.5.09 8.12 3.71 8.21 8.21 0 6.21-6.69 12.76-8.36 12.76s-8.37-6.54-8.37-12.76zm-33.45 0c.11-4.62 3.95-8.27 8.57-8.16a8.37 8.37 0 018.16 8.16c0 6.21-6.69 12.76-8.36 12.76s-8.38-6.54-8.37-12.76zm-33.46 0c.09-4.62 3.9-8.29 8.52-8.21 4.5.09 8.12 3.71 8.21 8.21 0 6.21-6.69 12.76-8.36 12.76S0 1231.94 0 1225.72z" style="fill: rgb(238, 118, 75);"/>
    <g id="Group_2653">
      <ellipse id="Ellipse_60" class="st2" cx="770.8719787597656" cy="650.1249694824219" rx="29.06999969482422" ry="3.5399999618530273" style="fill: rgb(30, 24, 56);"/>
      <path id="Path_9107" class="st3" d="M787.6219934082031,448.7549938964844 l-23.93,201.37 h10.65 l18.57,-200.31 l-5.29,-1.06 z" style="fill: rgb(246, 165, 32);"/>
      <g id="Group_2652">
        <path id="Path_9108" class="st2" d="M792.9219934082031,449.81499389648434 l-5.3,-1.06 l-1.81,15.51 c1.75,1.1400000000000001 3.6100000000000003,2.08 5.5600000000000005,2.81 l1.55,-17.26 z" style="fill: rgb(30, 24, 56);"/>
      </g>
      <circle id="Ellipse_61" class="st4" cx="794.2419738769531" cy="420.4049987792969" r="33.650001525878906" style="fill: rgb(233, 82, 98);"/>
      <circle id="Ellipse_62" class="st5" cx="794.2419738769531" cy="420.4049987792969" r="28.8799991607666" style="fill: rgb(81, 188, 197);"/>
      <path id="Path_9109" class="st2" d="M802.5419934082031,413.15499389648437 h-13.58 v-6.37 l-16.64,11.23 l16.64,11.23 v-5.66 h11.26 c2.14,0 3.87,1.73 3.87,3.87 v9.73 h2.3200000000000003 V417.0249938964844 c-0.010000000000000002,-2.14 -1.7400000000000002,-3.87 -3.87,-3.87 z" style="fill: rgb(30, 24, 56);"/>
    </g>
    <g id="Group_2657" class="">
      <ellipse id="Ellipse_63" class="st2" cx="424.69479751586914" cy="871.6384582519531" rx="15.770000457763672" ry="2.4800000190734863" style="fill: rgb(30, 24, 56);"/>
      <path id="Path_9110" class="st3" d="M405.67479995727535,654.788497314453 l25.8,217.15 h-11.49 l-20.03,-216 l5.72,-1.15 z" style="fill: rgb(246, 165, 32);"/>
      <g id="Group_2654">
        <path id="Path_9111" class="st2" d="M399.95479995727544,655.9384973144531 l5.71,-1.1400000000000001 l1.9500000000000002,16.73 c-1.8800000000000003,1.22 -3.9,2.24 -6,3.03 l-1.6600000000000001,-18.62 z" style="fill: rgb(30, 24, 56);"/>
      </g>
      <circle id="Ellipse_64" class="st1" cx="398.5248146057129" cy="624.2185363769531" r="36.290000915527344" style="fill: rgb(238, 118, 75);"/>
      <circle id="Ellipse_65" class="st5" cx="398.5248146057129" cy="624.2185363769531" r="31.149999618530273" style="fill: rgb(81, 188, 197);"/>
      <g id="Group_2656">
        <path id="Rectangle_176" class="st2" d="M379.04479995727536,607.3484973144532 h38.39 c0.7600000000000002,0 1.3800000000000001,0.6200000000000002 1.3800000000000001,1.3800000000000001 v30.02 c0,0.7600000000000002 -0.6200000000000002,1.3800000000000001 -1.3800000000000001,1.3800000000000001 h-38.39 c-0.7600000000000002,0 -1.3800000000000001,-0.6200000000000002 -1.3800000000000001,-1.3800000000000001 v-30.02 c0,-0.7600000000000002 0.6200000000000002,-1.3800000000000001 1.3800000000000001,-1.3800000000000001 z" style="fill: rgb(30, 24, 56);"/>
        <path id="Rectangle_177" class="st5" d="M381.66479995727536,609.518497314453 h33.27 c0.7600000000000002,0 1.3800000000000001,0.6200000000000002 1.3800000000000001,1.3800000000000001 v16.6 c0,0.7600000000000002 -0.6200000000000002,1.3800000000000001 -1.3800000000000001,1.3800000000000001 h-33.27 c-0.7600000000000002,0 -1.3800000000000001,-0.6200000000000002 -1.3800000000000001,-1.3800000000000001 v-16.6 c0,-0.7600000000000002 0.6200000000000002,-1.3800000000000001 1.3800000000000001,-1.3800000000000001 z" style="fill: rgb(81, 188, 197);"/>
        <circle id="Ellipse_66" class="st5" cx="385.3948097229004" cy="634.3185119628906" r="2.56000018119812" style="fill: rgb(81, 188, 197);"/>
        <circle id="Ellipse_67" class="st5" cx="410.7347755432129" cy="634.3185119628906" r="2.56000018119812" style="fill: rgb(81, 188, 197);"/>
        <g id="Group_2655">
          <path id="Rectangle_178" class="st2" d="M406.7447999572754,637.0984973144532 h7.17 c0.3300000000000001,0 0.6000000000000002,0.27 0.6000000000000002,0.6000000000000002 v6.47 c0,0.3300000000000001 -0.27,0.6000000000000002 -0.6000000000000002,0.6000000000000002 h-7.17 c-0.3300000000000001,0 -0.6000000000000002,-0.27 -0.6000000000000002,-0.6000000000000002 v-6.47 c0,-0.3300000000000001 0.27,-0.6000000000000002 0.6000000000000002,-0.6000000000000002 z" style="fill: rgb(30, 24, 56);"/>
          <path id="Rectangle_179" class="st2" d="M382.57479995727545,637.0984973144532 h7.17 c0.3300000000000001,0 0.6000000000000002,0.27 0.6000000000000002,0.6000000000000002 v6.47 c0,0.3300000000000001 -0.27,0.6000000000000002 -0.6000000000000002,0.6000000000000002 h-7.17 c-0.3300000000000001,0 -0.6000000000000002,-0.27 -0.6000000000000002,-0.6000000000000002 v-6.47 c0,-0.3300000000000001 0.27,-0.6000000000000002 0.6000000000000002,-0.6000000000000002 z" style="fill: rgb(30, 24, 56);"/>
        </g>
      </g>
    </g>
    <g id="Group_2661">
      <ellipse id="Ellipse_72" class="st6" cx="640.4620056152344" cy="248.09500122070312" rx="5.760000228881836" ry="7.400000095367432" style="fill: rgb(38, 30, 74);"/>
      <ellipse id="Ellipse_73" class="st6" cx="576.3420104980469" cy="248.09500122070312" rx="5.760000228881836" ry="7.400000095367432" style="fill: rgb(38, 30, 74);"/>
      <path id="Path_9116" class="st4" d="M645.5819934082032,194.52499389648438 H542.5919934082032 c-6.94,0 -12.56,5.62 -12.56,12.56 v41.54 h128.11 v-41.53 c0,-6.94 -5.62,-12.57 -12.56,-12.57 z" style="fill: rgb(233, 82, 98);"/>
      <ellipse id="Ellipse_74" class="st6" cx="608.0019836425781" cy="248.09500122070312" rx="5.760000228881836" ry="7.400000095367432" style="fill: rgb(38, 30, 74);"/>
      <ellipse id="Ellipse_75" class="st6" cx="548.7920227050781" cy="248.09500122070312" rx="5.760000228881836" ry="7.400000095367432" style="fill: rgb(38, 30, 74);"/>
      <path id="Rectangle_180" class="st7" d="M611.0819934082032,200.80499389648435 h-33.03 c-1.09,0 -1.98,0.8900000000000001 -1.98,1.98 v17.56 h36.99 v-17.56 c0,-1.09 -0.8800000000000001,-1.97 -1.98,-1.98 z" style="fill: rgb(85, 59, 142);"/>
      <path id="Rectangle_181" class="st7" d="M569.5519934082031,200.80499389648435 h-33.03 c-1.09,0 -1.98,0.8900000000000001 -1.98,1.98 v17.56 h36.99 v-17.56 c0,-1.09 -0.8800000000000001,-1.98 -1.98,-1.98 z" style="fill: rgb(85, 59, 142);"/>
      <path id="Rectangle_182" class="st7" d="M652.6119934082031,200.80499389648435 h-33.03 c-1.09,0 -1.98,0.8900000000000001 -1.98,1.98 v17.56 h36.99 v-17.56 c0,-1.09 -0.8800000000000001,-1.98 -1.98,-1.98 z" style="fill: rgb(85, 59, 142);"/>
      <circle id="Ellipse_76" class="st7" cx="623.8819885253906" cy="236.75497436523438" r="4.889999866485596" style="fill: rgb(85, 59, 142);"/>
      <circle id="Ellipse_77" class="st7" cx="649.7120056152344" cy="236.75497436523438" r="4.889999866485596" style="fill: rgb(85, 59, 142);"/>
    </g>
    <g id="Group_2661-2">
      <ellipse id="Ellipse_72-2" class="st6" cx="494.5080261230469" cy="1140.0949401855469" rx="5.760000228881836" ry="7.400000095367432" style="fill: rgb(38, 30, 74);"/>
      <ellipse id="Ellipse_73-2" class="st6" cx="430.3880310058594" cy="1140.0949401855469" rx="5.760000228881836" ry="7.400000095367432" style="fill: rgb(38, 30, 74);"/>
      <path id="Path_9116-2" class="st4" d="M499.6280139160157,1086.5249938964844 H396.63801391601567 c-6.94,0 -12.56,5.62 -12.56,12.56 v41.54 h128.11 v-41.53 c0,-6.94 -5.62,-12.57 -12.56,-12.57 z" style="fill: rgb(233, 82, 98);"/>
      <ellipse id="Ellipse_74-2" class="st6" cx="462.0480041503906" cy="1140.0949401855469" rx="5.760000228881836" ry="7.400000095367432" style="fill: rgb(38, 30, 74);"/>
      <ellipse id="Ellipse_75-2" class="st6" cx="402.8380432128906" cy="1140.0949401855469" rx="5.760000228881836" ry="7.400000095367432" style="fill: rgb(38, 30, 74);"/>
      <path id="Rectangle_180-2" class="st7" d="M465.1280139160157,1092.8149938964843 h-33.03 c-1.09,0 -1.98,0.8900000000000001 -1.98,1.98 v17.56 h36.99 v-17.56 c0,-1.1 -0.8800000000000001,-1.98 -1.98,-1.98 z" style="fill: rgb(85, 59, 142);"/>
      <path id="Rectangle_181-2" class="st7" d="M423.5980139160156,1092.8149938964843 h-33.03 c-1.09,0 -1.98,0.8900000000000001 -1.98,1.98 v17.56 h36.99 v-17.56 c0,-1.1 -0.8800000000000001,-1.98 -1.98,-1.98 z" style="fill: rgb(85, 59, 142);"/>
      <path id="Rectangle_182-2" class="st7" d="M506.65801391601565,1092.8149938964843 h-33.03 c-1.09,0 -1.98,0.8900000000000001 -1.98,1.98 v17.56 h36.99 v-17.56 c0,-1.1 -0.8800000000000001,-1.98 -1.98,-1.98 z" style="fill: rgb(85, 59, 142);"/>
      <circle id="Ellipse_76-2" class="st7" cx="477.9280090332031" cy="1128.7549743652344" r="4.889999866485596" style="fill: rgb(85, 59, 142);"/>
      <circle id="Ellipse_77-2" class="st7" cx="503.7580261230469" cy="1128.7549743652344" r="4.889999866485596" style="fill: rgb(85, 59, 142);"/>
    </g>
    <g id="Group_2661-3">
      <ellipse id="Ellipse_72-3" class="st6" cx="266.1390075683594" cy="884.2090454101562" rx="5.760000228881836" ry="7.400000095367432" style="fill: rgb(38, 30, 74);"/>
      <ellipse id="Ellipse_73-3" class="st6" cx="330.2489929199219" cy="884.2090454101562" rx="5.760000228881836" ry="7.400000095367432" style="fill: rgb(38, 30, 74);"/>
      <path id="Path_9116-3" class="st8" d="M261.01899658203126,830.6390063476563 h102.99 c6.94,0 12.56,5.63 12.56,12.56 v41.53 H248.45899658203126 v-41.53 c0,-6.93 5.62,-12.55 12.56,-12.56 z" style="fill: rgb(240, 136, 76);"/>
      <ellipse id="Ellipse_74-3" class="st6" cx="298.5889892578125" cy="884.2090454101562" rx="5.760000228881836" ry="7.400000095367432" style="fill: rgb(38, 30, 74);"/>
      <ellipse id="Ellipse_75-3" class="st6" cx="357.8089904785156" cy="884.2090454101562" rx="5.760000228881836" ry="7.400000095367432" style="fill: rgb(38, 30, 74);"/>
      <path id="Rectangle_180-3" class="st7" d="M295.5089965820313,836.9290063476562 h33.03 c1.09,0 1.98,0.8900000000000001 1.98,1.98 v17.56 h-36.99 v-17.56 c0,-1.1 0.8900000000000001,-1.98 1.98,-1.98 z" style="fill: rgb(85, 59, 142);"/>
      <path id="Rectangle_181-3" class="st7" d="M337.03899658203125,836.9290063476562 h33.03 c1.09,0 1.98,0.8900000000000001 1.98,1.98 v17.56 H335.0589965820312 v-17.56 c0,-1.1 0.8800000000000001,-1.98 1.98,-1.98 z" style="fill: rgb(85, 59, 142);"/>
      <path id="Rectangle_182-3" class="st7" d="M253.97899658203124,836.9290063476562 h33.03 c1.09,0 1.98,0.8900000000000001 1.98,1.98 v17.56 h-36.99 v-17.56 c0,-1.1 0.8900000000000001,-1.98 1.98,-1.98 z" style="fill: rgb(85, 59, 142);"/>
      <circle id="Ellipse_76-3" class="st7" cx="282.708984375" cy="872.8689575195312" r="4.889999866485596" style="fill: rgb(85, 59, 142);"/>
      <circle id="Ellipse_77-3" class="st7" cx="256.8890075683594" cy="872.8689575195312" r="4.889999866485596" style="fill: rgb(85, 59, 142);"/>
    </g>
    <g id="Group_2661-4">
      <ellipse id="Ellipse_72-4" class="st6" cx="573.6879959106445" cy="2220.819023132324" rx="5.760000228881836" ry="7.400000095367432" style="fill: rgb(38, 30, 74);"/>
      <ellipse id="Ellipse_73-4" class="st6" cx="509.57799530029297" cy="2220.819023132324" rx="5.760000228881836" ry="7.400000095367432" style="fill: rgb(38, 30, 74);"/>
      <path id="Path_9116-4" class="st8" d="M578.8079956054687,2167.2490234375 H475.81799560546875 C468.88799560546875,2167.2490234375 463.25799560546875,2172.8790234375 463.25799560546875,2179.8090234375 v41.53 h128.11 V2179.8090234375 c0,-6.93 -5.62,-12.56 -12.56,-12.56 z" style="fill: rgb(240, 136, 76);"/>
      <ellipse id="Ellipse_74-4" class="st6" cx="541.2379989624023" cy="2220.819023132324" rx="5.760000228881836" ry="7.400000095367432" style="fill: rgb(38, 30, 74);"/>
      <ellipse id="Ellipse_75-4" class="st6" cx="482.0179958343506" cy="2220.819023132324" rx="5.760000228881836" ry="7.400000095367432" style="fill: rgb(38, 30, 74);"/>
      <path id="Rectangle_180-4" class="st7" d="M544.3179956054687,2173.5290234375 H511.27799560546873 c-1.09,0 -1.98,0.8900000000000001 -1.98,1.98 v17.56 h36.99 V2175.5090234375 a1.97,1.97 0 0 0 -1.97,-1.98 z" style="fill: rgb(85, 59, 142);"/>
      <path id="Rectangle_181-4" class="st7" d="M502.7879956054687,2173.5290234375 H469.74799560546876 c-1.09,0 -1.98,0.8900000000000001 -1.98,1.98 v17.56 H504.75799560546875 V2175.5090234375 a1.97,1.97 0 0 0 -1.97,-1.98 z" style="fill: rgb(85, 59, 142);"/>
      <path id="Rectangle_182-4" class="st7" d="M585.8479956054688,2173.5290234375 H552.8079956054687 c-1.09,0 -1.98,0.8900000000000001 -1.98,1.98 v17.56 h36.99 V2175.5090234375 a1.97,1.97 0 0 0 -1.97,-1.98 z" style="fill: rgb(85, 59, 142);"/>
      <circle id="Ellipse_76-4" class="st7" cx="557.1179962158203" cy="2209.4790229797363" r="4.889999866485596" style="fill: rgb(85, 59, 142);"/>
      <circle id="Ellipse_77-4" class="st7" cx="582.9379959106445" cy="2209.4790229797363" r="4.889999866485596" style="fill: rgb(85, 59, 142);"/>
    </g>
    <g id="Group_2662">
      <path id="Path_9117" class="st6" d="M849.9519934082032,118.47499389648436 c0,-3.3 1.26,-6.48 3.52,-8.89 l2.38,-2.52 c2.26,-2.41 3.52,-5.59 3.52,-8.89 V97.52499389648438 h-14.82 v-5.36 h-4.87 c-2.35,-5.53 -8.73,-8.12 -14.27,-5.77 a10.86,10.86 0 0 0 -5.77,5.77 h-4.87 V97.52499389648438 h-14.82 v0.6500000000000001 c0,3.3 1.26,6.49 3.52,8.89 l2.38,2.52 c2.26,2.41 3.5300000000000002,5.59 3.52,8.89 h5.41 v3.56 h-14.82 v0.6500000000000001 c0,3.3 1.26,6.49 3.52,8.89 l2.38,2.52 c2.26,2.41 3.52,5.59 3.52,8.89 h5.41 v3.56 h-14.82 v0.6500000000000001 c0,3.3 1.26,6.48 3.52,8.89 l2.38,2.52 c2.26,2.41 3.52,5.59 3.52,8.89 h40.6 c0,-3.3 1.26,-6.49 3.52,-8.89 l2.38,-2.52 c2.26,-2.41 3.52,-5.59 3.52,-8.89 v-0.6500000000000001 h-14.82 v-3.56 h5.41 c0,-3.3 1.26,-6.49 3.52,-8.89 l2.38,-2.52 c2.26,-2.41 3.52,-5.59 3.52,-8.89 v-0.6500000000000001 h-14.82 v-3.55 l5.35,-0.010000000000000002 z" style="fill: rgb(38, 30, 74);"/>
      <circle id="Ellipse_78" class="st4" cx="829.6520080566406" cy="106.54498291015625" r="8.140000343322754" style="fill: rgb(233, 82, 98);"/>
      <circle id="Ellipse_79" class="st9" cx="829.6520080566406" cy="131.04501342773438" r="8.140000343322754" style="fill: rgb(249, 182, 39);"/>
      <circle id="Ellipse_80" class="st10" cx="829.6520080566406" cy="155.55502319335938" r="8.140000343322754" style="fill: rgb(150, 194, 63);"/>
    </g>
    <g id="Group_2662-2">
      <path id="Path_9117-2" class="st6" d="M780.9419934082031,1294.4749938964844 c0,-3.3 1.26,-6.48 3.52,-8.89 l2.38,-2.52 c2.26,-2.41 3.52,-5.59 3.52,-8.89 v-0.6500000000000001 h-14.82 v-5.36 h-4.87 c-2.35,-5.53 -8.73,-8.12 -14.27,-5.77 a10.86,10.86 0 0 0 -5.77,5.77 h-4.87 v5.36 h-14.82 v0.6500000000000001 c0,3.3 1.26,6.49 3.52,8.89 l2.38,2.52 c2.26,2.41 3.5300000000000002,5.59 3.52,8.89 h5.41 v3.56 h-14.82 v0.6500000000000001 c0,3.3 1.26,6.49 3.52,8.89 l2.38,2.52 c2.26,2.41 3.52,5.59 3.52,8.89 h5.41 v3.56 h-14.82 v0.6500000000000001 c0,3.3 1.26,6.48 3.52,8.89 l2.38,2.52 c2.26,2.41 3.52,5.59 3.52,8.89 h40.6 c0,-3.3 1.26,-6.49 3.52,-8.89 l2.38,-2.52 c2.26,-2.41 3.52,-5.59 3.52,-8.89 v-0.6500000000000001 h-14.83 v-3.56 h5.41 c0,-3.3 1.26,-6.49 3.52,-8.89 l2.38,-2.52 c2.26,-2.41 3.52,-5.59 3.52,-8.89 v-0.6500000000000001 h-14.82 v-3.56 h5.36 z" style="fill: rgb(38, 30, 74);"/>
      <circle id="Ellipse_78-2" class="st4" cx="760.6520080566406" cy="1282.5450134277344" r="8.140000343322754" style="fill: rgb(233, 82, 98);"/>
      <circle id="Ellipse_79-2" class="st9" cx="760.6520080566406" cy="1307.0450134277344" r="8.140000343322754" style="fill: rgb(249, 182, 39);"/>
      <circle id="Ellipse_80-2" class="st10" cx="760.6520080566406" cy="1331.5550231933594" r="8.140000343322754" style="fill: rgb(150, 194, 63);"/>
    </g>
    <g id="Group_2662-3">
      <path id="Path_9117-3" class="st6" d="M86.95199340820312,1939.4749938964842 c0,-3.3 1.26,-6.48 3.52,-8.89 l2.38,-2.52 c2.26,-2.41 3.52,-5.59 3.52,-8.89 v-0.6500000000000001 h-14.82 v-5.36 h-4.87 c-2.35,-5.53 -8.73,-8.12 -14.27,-5.77 a10.86,10.86 0 0 0 -5.77,5.77 h-4.87 v5.36 h-14.82 v0.6500000000000001 c0,3.3 1.26,6.49 3.52,8.89 l2.38,2.52 c2.26,2.41 3.5300000000000002,5.59 3.52,8.89 h5.41 v3.56 h-14.82 v0.6500000000000001 c0,3.3 1.26,6.49 3.52,8.89 l2.38,2.52 c2.26,2.41 3.52,5.59 3.52,8.89 h5.41 v3.56 h-14.82 v0.6500000000000001 c0,3.3 1.26,6.48 3.52,8.89 l2.38,2.52 c2.26,2.41 3.52,5.59 3.52,8.89 h40.6 c0,-3.3 1.26,-6.49 3.52,-8.89 l2.38,-2.52 c2.26,-2.41 3.52,-5.59 3.52,-8.89 v-0.6500000000000001 h-14.83 v-3.56 h5.41 c0,-3.3 1.26,-6.49 3.52,-8.89 l2.38,-2.52 c2.26,-2.41 3.52,-5.59 3.52,-8.89 v-0.6500000000000001 h-14.82 v-3.55 l5.36,-0.010000000000000002 z" style="fill: rgb(38, 30, 74);"/>
      <circle id="Ellipse_78-3" class="st4" cx="66.65199279785156" cy="1927.5450134277344" r="8.140000343322754" style="fill: rgb(233, 82, 98);"/>
      <circle id="Ellipse_79-3" class="st9" cx="66.65199279785156" cy="1952.0450134277344" r="8.140000343322754" style="fill: rgb(249, 182, 39);"/>
      <circle id="Ellipse_80-3" class="st10" cx="66.65199279785156" cy="1976.5550231933594" r="8.140000343322754" style="fill: rgb(150, 194, 63);"/>
    </g>
    <g id="Grupo_387">
      <g id="Grupo_386">
        <path id="Retângulo_260" class="st11" d="M688.4319934082031,260.78499389648437 h21.85 v4.37 h-21.85 z" style="fill: rgb(255, 255, 255);"/>
        <path id="Retângulo_261" class="st11" d="M688.4319934082031,252.04499389648436 h21.85 v4.37 h-21.85 z" style="fill: rgb(255, 255, 255);"/>
        <path id="Retângulo_262" class="st11" d="M688.4319934082031,243.30499389648435 h21.85 v4.37 h-21.85 z" style="fill: rgb(255, 255, 255);"/>
        <path id="Retângulo_263" class="st11" d="M688.4319934082031,234.56499389648434 h21.85 v4.37 h-21.85 z" style="fill: rgb(255, 255, 255);"/>
      </g>
      <path id="Retângulo_264" class="st11" d="M679.6919934082031,234.56499389648434 h5.34 v30.59 h-5.34 z" style="fill: rgb(255, 255, 255);"/>
    </g>
    <g id="Group_2661-5">
      <ellipse id="Ellipse_72-5" class="st6" cx="388.93201446533203" cy="2732.589042663574" rx="5.760000228881836" ry="7.400000095367432" style="fill: rgb(38, 30, 74);"/>
      <ellipse id="Ellipse_73-5" class="st6" cx="453.05201721191406" cy="2732.589042663574" rx="5.760000228881836" ry="7.400000095367432" style="fill: rgb(38, 30, 74);"/>
      <path id="Path_9116-5" class="st4" d="M383.81201416015625,2679.01904296875 h102.98 c6.94,0 12.56,5.62 12.56,12.56 v41.53 H371.25201416015625 V2691.57904296875 C371.25201416015625,2684.64904296875 376.87201416015625,2679.01904296875 383.81201416015625,2679.01904296875 z" style="fill: rgb(233, 82, 98);"/>
      <ellipse id="Ellipse_74-5" class="st6" cx="421.3920135498047" cy="2732.589042663574" rx="5.760000228881836" ry="7.400000095367432" style="fill: rgb(38, 30, 74);"/>
      <ellipse id="Ellipse_75-5" class="st6" cx="480.60201263427734" cy="2732.589042663574" rx="5.760000228881836" ry="7.400000095367432" style="fill: rgb(38, 30, 74);"/>
      <path id="Rectangle_180-5" class="st7" d="M418.31201416015625,2685.29904296875 h33.03 c1.09,0 1.98,0.8900000000000001 1.98,1.98 v17.56 H416.33201416015623 V2687.27904296875 c0,-1.09 0.8800000000000001,-1.98 1.98,-1.98 c-0.010000000000000002,0 -0.010000000000000002,0 0,0 z" style="fill: rgb(85, 59, 142);"/>
      <path id="Rectangle_181-5" class="st7" d="M459.83201416015623,2685.29904296875 h33.03 c1.09,0 1.98,0.8900000000000001 1.98,1.98 v17.56 H457.86201416015626 V2687.27904296875 c0,-1.09 0.8800000000000001,-1.98 1.97,-1.98 z" style="fill: rgb(85, 59, 142);"/>
      <path id="Rectangle_182-5" class="st7" d="M376.77201416015623,2685.29904296875 h33.03 c1.09,0 1.98,0.8900000000000001 1.98,1.98 v17.56 H374.80201416015626 V2687.27904296875 c0,-1.09 0.8800000000000001,-1.98 1.97,-1.98 z" style="fill: rgb(85, 59, 142);"/>
      <circle id="Ellipse_76-5" class="st7" cx="405.51201248168945" cy="2721.2490425109863" r="4.889999866485596" style="fill: rgb(85, 59, 142);"/>
      <circle id="Ellipse_77-5" class="st7" cx="379.68201446533203" cy="2721.2490425109863" r="4.889999866485596" style="fill: rgb(85, 59, 142);"/>
    </g>
    <g id="Grupo_389">
      <g id="Grupo_388">
        <path id="Retângulo_265" class="st11" d="M316.2330017089844,2744.270048828125 h21.85 v4.37 H316.2330017089844 z" style="fill: rgb(255, 255, 255);"/>
        <path id="Retângulo_266" class="st11" d="M316.2330017089844,2735.530048828125 h21.85 v4.37 H316.2330017089844 z" style="fill: rgb(255, 255, 255);"/>
        <path id="Retângulo_267" class="st11" d="M316.2330017089844,2726.790048828125 h21.85 v4.37 H316.2330017089844 z" style="fill: rgb(255, 255, 255);"/>
        <path id="Retângulo_268" class="st11" d="M316.2330017089844,2718.050048828125 h21.85 v4.37 H316.2330017089844 z" style="fill: rgb(255, 255, 255);"/>
      </g>
      <path id="Retângulo_269" class="st11" d="M341.4830017089844,2718.050048828125 h5.34 v30.59 h-5.34 z" style="fill: rgb(255, 255, 255);"/>
    </g>
    <g id="Grupo_422">
      <g id="Grupo_388-2">
        <path id="Retângulo_265-2" class="st11" d="M740.6380010986328,2744.2749938964844 h21.85 v4.37 h-21.85 z" style="fill: rgb(255, 255, 255);"/>
        <path id="Retângulo_266-2" class="st11" d="M740.6380010986328,2735.5349938964846 h21.85 v4.37 h-21.85 z" style="fill: rgb(255, 255, 255);"/>
        <path id="Retângulo_267-2" class="st11" d="M740.6380010986328,2726.7949938964844 h21.85 v4.37 h-21.85 z" style="fill: rgb(255, 255, 255);"/>
        <path id="Retângulo_268-2" class="st11" d="M740.6380010986328,2718.0449938964844 h21.85 v4.37 h-21.85 z" style="fill: rgb(255, 255, 255);"/>
      </g>
      <path id="Retângulo_269-2" class="st11" d="M731.8980010986328,2718.0549938964846 h5.34 v30.59 h-5.34 z" style="fill: rgb(255, 255, 255);"/>
    </g>
    <g id="Grupo_391">
      <g id="Grupo_390">
        <path id="Retângulo_270" class="st11" d="M514.1819934082031,703.1749938964845 h4.37 v21.85 h-4.37 z" style="fill: rgb(255, 255, 255);"/>
        <path id="Retângulo_271" class="st11" d="M505.4419934082031,703.1749938964845 h4.37 v21.85 h-4.37 z" style="fill: rgb(255, 255, 255);"/>
        <path id="Retângulo_272" class="st11" d="M496.7019934082032,703.1749938964845 h4.37 v21.85 h-4.37 z" style="fill: rgb(255, 255, 255);"/>
        <path id="Retângulo_273" class="st11" d="M487.96199340820317,703.1749938964845 h4.37 v21.85 h-4.37 z" style="fill: rgb(255, 255, 255);"/>
      </g>
      <path id="Retângulo_274" class="st11" d="M487.96199340820317,728.4249938964845 h30.59 v5.34 h-30.59 z" style="fill: rgb(255, 255, 255);"/>
    </g>
    <g id="Grupo_393">
      <g id="Grupo_392">
        <path id="Retângulo_275" class="st11" d="M445.13199340820313,643.0049938964844 h21.85 v4.37 h-21.85 z" style="fill: rgb(255, 255, 255);"/>
        <path id="Retângulo_276" class="st11" d="M445.13199340820313,651.7449938964844 h21.85 v4.37 h-21.85 z" style="fill: rgb(255, 255, 255);"/>
        <path id="Retângulo_277" class="st11" d="M445.13199340820313,660.4849938964844 h21.85 v4.37 h-21.85 z" style="fill: rgb(255, 255, 255);"/>
        <path id="Retângulo_278" class="st11" d="M445.13199340820313,669.2249938964844 h21.85 v4.37 h-21.85 z" style="fill: rgb(255, 255, 255);"/>
      </g>
      <path id="Retângulo_279" class="st11" d="M470.38199340820313,643.0049938964844 h5.34 v30.59 h-5.34 z" style="fill: rgb(255, 255, 255);"/>
    </g>
    <g id="Grupo_395" transform="rotate(180 190.4199981689453,959.5999755859375) ">
      <g id="Grupo_394">
        <path id="Retângulo_280" class="st11" d="M166.86 1052.7h21.85v4.37h-21.85z" style="fill: rgb(255, 255, 255);"/>
        <path id="Retângulo_281" class="st11" d="M166.86 1043.96h21.85v4.37h-21.85z" style="fill: rgb(255, 255, 255);"/>
        <path id="Retângulo_282" class="st11" d="M166.86 1035.22h21.85v4.37h-21.85z" style="fill: rgb(255, 255, 255);"/>
        <path id="Retângulo_283" class="st11" d="M166.86 1026.48h21.85v4.37h-21.85z" style="fill: rgb(255, 255, 255);"/>
      </g>
      <path id="Retângulo_284" class="st11" d="M158.12 1026.48h5.34v30.59h-5.34z" style="fill: rgb(255, 255, 255);"/>
    </g>
    <g id="Group_2661-6">
      <ellipse id="Ellipse_72-6" class="st6" cx="236.8699951171875" cy="1714.759033203125" rx="5.760000228881836" ry="7.400000095367432" style="fill: rgb(38, 30, 74);"/>
      <ellipse id="Ellipse_73-6" class="st6" cx="300.98004150390625" cy="1714.759033203125" rx="5.760000228881836" ry="7.400000095367432" style="fill: rgb(38, 30, 74);"/>
      <path id="Path_9116-6" d="M231.7500146484375,1661.1889941406248 h102.99 c6.94,0 12.56,5.62 12.56,12.56 v41.53 H219.19001464843745 v-41.53 c0,-6.93 5.62,-12.55 12.56,-12.56 z" fill="#0bb5cb"/>
      <ellipse id="Ellipse_74-6" class="st6" cx="269.32000732421875" cy="1714.759033203125" rx="5.760000228881836" ry="7.400000095367432" style="fill: rgb(38, 30, 74);"/>
      <ellipse id="Ellipse_75-6" class="st6" cx="328.5400390625" cy="1714.759033203125" rx="5.760000228881836" ry="7.400000095367432" style="fill: rgb(38, 30, 74);"/>
      <path id="Rectangle_180-6" class="st7" d="M266.2400146484375,1667.4789941406252 h33.03 c1.09,0 1.98,0.8900000000000001 1.98,1.98 v17.56 h-36.99 v-17.56 c0,-1.1 0.8900000000000001,-1.98 1.98,-1.98 z" style="fill: rgb(85, 59, 142);"/>
      <path id="Rectangle_181-6" class="st7" d="M307.7700146484375,1667.4789941406252 h33.03 c1.09,0 1.98,0.8900000000000001 1.98,1.98 v17.56 H305.7900146484375 v-17.56 c0,-1.1 0.8900000000000001,-1.98 1.98,-1.98 z" style="fill: rgb(85, 59, 142);"/>
      <path id="Rectangle_182-6" class="st7" d="M224.71001464843755,1667.4789941406252 h33.03 c1.09,0 1.98,0.8900000000000001 1.98,1.98 v17.56 h-36.99 v-17.56 c0,-1.1 0.8900000000000001,-1.98 1.98,-1.98 z" style="fill: rgb(85, 59, 142);"/>
      <circle id="Ellipse_76-6" class="st7" cx="253.44000244140625" cy="1703.4189453125" r="4.889999866485596" style="fill: rgb(85, 59, 142);"/>
      <circle id="Ellipse_77-6" class="st7" cx="227.6199951171875" cy="1703.4189453125" r="4.889999866485596" style="fill: rgb(85, 59, 142);"/>
    </g>
    <g id="Grupo_397" transform="rotate(-90 1423.0419921875,805.2899780273436) ">
      <g id="Grupo_396">
        <path id="Retângulo_285" transform="rotate(-90 28.409999847412113,19.667999267578125) " class="st11" d="M17.48,17.481000175476076 h21.85 v4.37 H17.48 z" style="fill: rgb(255, 255, 255);"/>
        <path id="Retângulo_286" transform="rotate(-90 19.66799926757813,19.66900062561035) " class="st11" d="M8.74,17.481000175476076 h21.85 v4.37 H8.74 z" style="fill: rgb(255, 255, 255);"/>
        <path id="Retângulo_287" transform="rotate(-90 10.925999641418462,19.66799926757813) " class="st11" d="M0,17.481000175476076 h21.85 v4.37 H0 z" style="fill: rgb(255, 255, 255);"/>
        <path id="Retângulo_288" transform="rotate(-90 2.184999942779545,19.66799926757813) " class="st11" d="M-8.74,17.481000175476076 h21.85 v4.37 H-8.74 z" style="fill: rgb(255, 255, 255);"/>
      </g>
      <path id="Retângulo_289" transform="rotate(-90 15.29699993133545,2.671000003814696) " class="st11" d="M12.63-12.63h5.34v30.59h-5.34z" style="fill: rgb(255, 255, 255);"/>
    </g>
    <g id="Grupo_399" transform="rotate(180 579.5540161132811,1329.35498046875) ">
      <g id="Grupo_398">
        <path id="Retângulo_290" class="st11" d="M598.13 1505.8h21.85v4.37h-21.85z" style="fill: rgb(255, 255, 255);"/>
        <path id="Retângulo_291" class="st11" d="M598.13 1514.54h21.85v4.37h-21.85z" style="fill: rgb(255, 255, 255);"/>
        <path id="Retângulo_292" class="st11" d="M598.13 1523.28h21.85v4.37h-21.85z" style="fill: rgb(255, 255, 255);"/>
        <path id="Retângulo_293" class="st11" d="M598.13 1532.02h21.85v4.37h-21.85z" style="fill: rgb(255, 255, 255);"/>
      </g>
      <path id="Retângulo_294" class="st11" d="M623.38 1505.8h5.34v30.59h-5.34z" style="fill: rgb(255, 255, 255);"/>
    </g>
    <g id="Grupo_423">
      <g id="Grupo_398-2">
        <path id="Retângulo_290-2" class="st11" d="M170.1300048828125,1716.5399462890625 h21.85 v4.37 H170.1300048828125 z" style="fill: rgb(255, 255, 255);"/>
        <path id="Retângulo_291-2" class="st11" d="M170.1300048828125,1707.7999462890625 h21.85 v4.37 H170.1300048828125 z" style="fill: rgb(255, 255, 255);"/>
        <path id="Retângulo_292-2" class="st11" d="M170.1300048828125,1699.0599462890625 h21.85 v4.37 H170.1300048828125 z" style="fill: rgb(255, 255, 255);"/>
        <path id="Retângulo_293-2" class="st11" d="M170.1300048828125,1690.3199462890625 h21.85 v4.37 H170.1300048828125 z" style="fill: rgb(255, 255, 255);"/>
      </g>
      <path id="Retângulo_294-2" class="st11" d="M195.3800048828125,1690.3199462890625 h5.34 v30.59 h-5.34 z" style="fill: rgb(255, 255, 255);"/>
    </g>
    <g id="Grupo_401">
      <g id="Grupo_400">
        <path id="Retângulo_295" class="st11" d="M813.8720004272461,2613.907978515625 h4.37 v21.85 h-4.37 z" style="fill: rgb(255, 255, 255);"/>
        <path id="Retângulo_296" class="st11" d="M822.6220004272461,2613.907978515625 h4.37 v21.85 h-4.37 z" style="fill: rgb(255, 255, 255);"/>
        <path id="Retângulo_297" class="st11" d="M831.3620004272461,2613.907978515625 h4.37 v21.85 h-4.37 z" style="fill: rgb(255, 255, 255);"/>
        <path id="Retângulo_298" class="st11" d="M840.1020004272461,2613.907978515625 h4.37 v21.85 h-4.37 z" style="fill: rgb(255, 255, 255);"/>
      </g>
      <path id="Retângulo_299" class="st11" d="M813.8720004272461,2605.167978515625 h30.59 v5.34 h-30.59 z" style="fill: rgb(255, 255, 255);"/>
    </g>
    <path id="Retângulo_313" class="st0" d="M229.61 2605.17c35.46 0 64.2 28.74 64.2 64.2v64.2h-64.2c-35.46 0-64.2-28.74-64.2-64.2 0-35.46 28.74-64.2 64.2-64.2z" style="fill: none; stroke: rgb(81, 57, 141); stroke-miterlimit: 10; stroke-width: 40.793px;"/>
    <path id="Linha_12" class="st0" d="M293.81 2733.57v258.66" style="fill: none; stroke: rgb(81, 57, 141); stroke-miterlimit: 10; stroke-width: 40.793px;"/>
  </g>
</svg>